<svg width="28" height="28" viewBox="0 0 28 28" fill="none" xmlns="http://www.w3.org/2000/svg">
<path d="M15.4803 4.27993C15.8303 3.92999 16.305 3.7334 16.8 3.7334C17.295 3.7334 17.7697 3.92999 18.1197 4.27993L26.5197 12.6799C26.8697 13.03 27.0663 13.5047 27.0663 13.9997C27.0663 14.4946 26.8697 14.9693 26.5197 15.3194L18.1197 23.7194C17.7677 24.0594 17.2962 24.2476 16.8067 24.2433C16.3173 24.2391 15.8491 24.0428 15.503 23.6967C15.1569 23.3506 14.9606 22.8824 14.9564 22.393C14.9521 21.9035 15.1403 21.432 15.4803 21.0799L20.5333 15.8663H2.80002C2.30495 15.8663 1.83015 15.6697 1.48008 15.3196C1.13002 14.9695 0.93335 14.4947 0.93335 13.9997C0.93335 13.5046 1.13002 13.0298 1.48008 12.6797C1.83015 12.3297 2.30495 12.133 2.80002 12.133H20.5333L15.4803 6.9194C15.1303 6.56935 14.9337 6.09464 14.9337 5.59967C14.9337 5.10469 15.1303 4.62998 15.4803 4.27993Z" fill="#4D47DF"/>
</svg>
