<svg width="219" height="77" viewBox="0 0 219 77" fill="none" xmlns="http://www.w3.org/2000/svg">
<path d="M3.60003 71.2C2.5867 71.2 1.73337 70.72 1.04004 69.76C0.346701 68.8 3.43323e-05 66.7733 3.43323e-05 63.68C3.43323e-05 61.44 0.293368 58.6666 0.880035 55.36C1.4667 52.0533 2.24003 48.5066 3.20003 44.72C4.21337 40.9333 5.28004 37.1466 6.40004 33.36C7.52004 29.5733 8.64004 26.0266 9.76004 22.72C10.88 19.4133 11.8667 16.6133 12.72 14.32C13.5734 11.9733 14.1867 10.4 14.56 9.59996C14.7734 9.06662 15.1467 8.58662 15.68 8.15996C16.2134 7.73329 16.7734 7.51996 17.36 7.51996C18.5867 7.51996 19.36 7.83996 19.68 8.47996C20 9.11996 20.16 9.81329 20.16 10.56C20.16 11.7333 19.6267 14.4266 18.56 18.64C17.4934 22.8 15.84 28.9866 13.6 37.2C15.68 36.72 17.9734 36.2666 20.48 35.84C22.9867 35.4133 25.4934 35.0133 28 34.64C30.56 34.2666 32.9067 33.9466 35.04 33.68C37.2267 33.36 39.04 33.12 40.48 32.96C41.9734 32.8 42.88 32.72 43.2 32.72C43.5734 32.72 44.0267 32.8266 44.56 33.04C45.4134 29.7866 46.24 26.7733 47.04 24C47.84 21.2266 48.5334 18.9066 49.12 17.04C49.7067 15.12 50.1067 13.84 50.32 13.2C51.44 10.5333 52.7734 9.19996 54.32 9.19996C55.2267 9.19996 55.9734 9.51996 56.56 10.16C57.1467 10.8 57.44 11.7333 57.44 12.96C57.44 13.9733 57.2267 15.68 56.8 18.08C56.3734 20.48 55.7867 23.3066 55.04 26.56C54.3467 29.8133 53.5467 33.28 52.64 36.96C51.7867 40.5866 50.9067 44.2133 50 47.84C49.1467 51.4133 48.32 54.7733 47.52 57.92C46.7734 61.0133 46.1334 63.6266 45.6 65.76C45.12 67.8933 44.8267 69.28 44.72 69.92C44.5067 71.2533 44.16 72.48 43.68 73.6C43.2 74.7733 42.2934 75.36 40.96 75.36C39.8934 75.36 39.1734 74.6666 38.8 73.28C38.48 71.8933 38.32 70.1066 38.32 67.92C38.32 65.4666 38.5334 62.6666 38.96 59.52C39.3867 56.32 39.9467 52.96 40.64 49.44C41.3867 45.92 42.1867 42.4266 43.04 38.96C41.5467 39.3333 39.5467 39.76 37.04 40.24C34.5867 40.72 31.8667 41.2266 28.88 41.76C25.8934 42.2933 22.9067 42.8 19.92 43.28C16.9334 43.76 14.1867 44.16 11.68 44.48C10.24 50.24 9.09337 55.12 8.24004 59.12C7.44004 63.0666 6.72004 66.08 6.08003 68.16C5.44004 70.1866 4.61337 71.2 3.60003 71.2ZM99.795 38.48C99.795 40.1866 99.2617 41.8666 98.195 43.52C97.1284 45.12 95.715 46.6666 93.955 48.16C92.195 49.6 90.2484 50.96 88.115 52.24C85.9817 53.52 83.8484 54.64 81.715 55.6C79.5817 56.56 77.635 57.3333 75.875 57.92C75.4484 60 75.235 61.84 75.235 63.44C75.235 64.4533 75.475 65.1733 75.955 65.6C76.435 66.0266 77.1817 66.24 78.195 66.24C80.435 66.24 82.8084 65.84 85.315 65.04C87.8217 64.24 90.3817 63.2 92.995 61.92C95.6084 60.64 98.115 59.28 100.515 57.84C102.915 56.4 105.102 55.04 107.075 53.76C109.102 52.48 110.782 51.44 112.115 50.64C113.448 49.84 114.328 49.44 114.755 49.44C115.395 49.44 115.875 49.6533 116.195 50.08C116.568 50.4533 116.755 50.9066 116.755 51.44C116.755 51.8666 116.088 52.6933 114.755 53.92C113.475 55.1466 111.742 56.5866 109.555 58.24C107.368 59.84 104.915 61.4933 102.195 63.2C99.475 64.9066 96.6484 66.5066 93.715 68C90.835 69.4933 88.035 70.6933 85.315 71.6C82.6484 72.5066 80.2484 72.96 78.115 72.96C75.3417 72.96 73.1817 71.92 71.635 69.84C70.0884 67.76 69.315 64.5333 69.315 60.16C69.315 57.2266 69.6884 54.2666 70.435 51.28C71.235 48.2933 72.3017 45.44 73.635 42.72C75.0217 39.9466 76.5417 37.4933 78.195 35.36C79.9017 33.1733 81.6884 31.4666 83.555 30.24C85.4217 28.96 87.235 28.32 88.995 28.32C92.355 28.32 94.995 29.2533 96.915 31.12C98.835 32.9866 99.795 35.44 99.795 38.48ZM77.555 51.76C79.2084 50.7466 80.915 49.68 82.675 48.56C84.435 47.44 86.0617 46.2933 87.555 45.12C89.0484 43.9466 90.2484 42.72 91.155 41.44C92.115 40.1066 92.595 38.7466 92.595 37.36C92.595 35.3866 91.5284 34.4 89.395 34.4C88.0617 34.4 86.6484 35.2533 85.155 36.96C83.715 38.6133 82.3284 40.7733 80.995 43.44C79.6617 46.1066 78.515 48.88 77.555 51.76ZM126.142 76.16C122.035 76.16 118.809 74.8266 116.462 72.16C114.169 69.44 113.022 65.6533 113.022 60.8C113.022 57.8133 113.422 54.32 114.222 50.32C115.075 46.2666 116.142 42 117.422 37.52C118.755 32.9866 120.195 28.5066 121.742 24.08C123.289 19.6533 124.782 15.5466 126.222 11.76C127.715 7.91996 129.022 4.71996 130.142 2.15996C130.782 0.719956 131.689 -4.3869e-05 132.862 -4.3869e-05C134.462 -4.3869e-05 135.262 0.986623 135.262 2.95996C135.262 3.59996 134.969 4.90662 134.382 6.87996C133.795 8.85329 133.022 11.3066 132.062 14.24C131.102 17.12 130.062 20.32 128.942 23.84C127.822 27.36 126.675 30.9866 125.502 34.72C124.382 38.4 123.342 42.0533 122.382 45.68C121.422 49.2533 120.649 52.6133 120.062 55.76C119.475 58.9066 119.182 61.6 119.182 63.84C119.182 65.28 119.555 66.4266 120.302 67.28C121.102 68.08 122.169 68.48 123.502 68.48C125.955 68.48 128.409 68 130.862 67.04C133.369 66.0266 135.769 64.8 138.062 63.36C140.355 61.8666 142.435 60.4 144.302 58.96C146.222 57.4666 147.849 56.24 149.182 55.28C150.515 54.2666 151.449 53.76 151.982 53.76C153.155 53.76 153.742 54.4 153.742 55.68C153.742 56.1066 153.315 56.9066 152.462 58.08C151.609 59.2 150.462 60.5333 149.022 62.08C147.582 63.6266 145.902 65.2266 143.982 66.88C142.115 68.48 140.142 70 138.062 71.44C136.035 72.8266 133.982 73.9466 131.902 74.8C129.875 75.7066 127.955 76.16 126.142 76.16ZM163.173 76.16C159.066 76.16 155.84 74.8266 153.493 72.16C151.2 69.44 150.053 65.6533 150.053 60.8C150.053 57.8133 150.453 54.32 151.253 50.32C152.106 46.2666 153.173 42 154.453 37.52C155.786 32.9866 157.226 28.5066 158.773 24.08C160.32 19.6533 161.813 15.5466 163.253 11.76C164.746 7.91996 166.053 4.71996 167.173 2.15996C167.813 0.719956 168.72 -4.3869e-05 169.893 -4.3869e-05C171.493 -4.3869e-05 172.293 0.986623 172.293 2.95996C172.293 3.59996 172 4.90662 171.413 6.87996C170.826 8.85329 170.053 11.3066 169.093 14.24C168.133 17.12 167.093 20.32 165.973 23.84C164.853 27.36 163.706 30.9866 162.533 34.72C161.413 38.4 160.373 42.0533 159.413 45.68C158.453 49.2533 157.68 52.6133 157.093 55.76C156.506 58.9066 156.213 61.6 156.213 63.84C156.213 65.28 156.586 66.4266 157.333 67.28C158.133 68.08 159.2 68.48 160.533 68.48C162.986 68.48 165.44 68 167.893 67.04C170.4 66.0266 172.8 64.8 175.093 63.36C177.386 61.8666 179.466 60.4 181.333 58.96C183.253 57.4666 184.88 56.24 186.213 55.28C187.546 54.2666 188.48 53.76 189.013 53.76C190.186 53.76 190.773 54.4 190.773 55.68C190.773 56.1066 190.346 56.9066 189.493 58.08C188.64 59.2 187.493 60.5333 186.053 62.08C184.613 63.6266 182.933 65.2266 181.013 66.88C179.146 68.48 177.173 70 175.093 71.44C173.066 72.8266 171.013 73.9466 168.933 74.8C166.906 75.7066 164.986 76.16 163.173 76.16ZM196.896 73.76C193.75 73.76 191.27 72.56 189.456 70.16C187.643 67.76 186.736 64.64 186.736 60.8C186.736 59.4133 186.923 57.9466 187.296 56.4C187.723 54.8 188.256 53.36 188.896 52.08C188.523 51.7066 188.23 51.2 188.016 50.56C187.803 49.8666 187.696 49.0133 187.696 48C187.696 44.8533 188.23 41.9733 189.296 39.36C190.363 36.7466 191.776 34.48 193.536 32.56C195.296 30.5866 197.243 29.0666 199.376 28C201.563 26.9333 203.776 26.4 206.016 26.4C209.696 26.4 212.683 27.7333 214.976 30.4C217.27 33.0133 218.416 37.0133 218.416 42.4C218.416 45.2266 217.99 48.1066 217.136 51.04C216.336 53.9733 215.216 56.8 213.776 59.52C212.39 62.24 210.763 64.6666 208.896 66.8C207.083 68.9333 205.136 70.64 203.056 71.92C201.03 73.1466 198.976 73.76 196.896 73.76ZM194.176 49.36C194.496 49.7866 194.656 50.3466 194.656 51.04C194.656 51.84 194.496 52.64 194.176 53.44C193.91 54.24 193.616 55.3333 193.296 56.72C192.976 58.1066 192.816 60.08 192.816 62.64C192.816 65.2 193.83 66.48 195.856 66.48C198.096 66.48 200.176 65.6 202.096 63.84C204.016 62.0266 205.723 59.7066 207.216 56.88C208.71 54.0533 209.856 51.04 210.656 47.84C211.51 44.5866 211.936 41.52 211.936 38.64C211.936 36.7733 211.59 35.4666 210.896 34.72C210.203 33.92 208.95 33.52 207.136 33.52C205.27 33.52 203.323 34.16 201.296 35.44C199.323 36.6666 197.67 38.3466 196.336 40.48C195.003 42.6133 194.336 45.0133 194.336 47.68C194.336 48.2666 194.283 48.8266 194.176 49.36Z" fill="black"/>
</svg>
